# xmcd
#
# Track frame offsets:
#	150
#	16622
#	37132
#	57162
#	76207
#	91095
#	118097
#	136010
#	149305
#	162495
#	182845
#	212782
#
# Disc length: 2875 seconds
#
# Revision: 2
# Processed by: cddbd v1.4b41PL2 Copyright (c) Steve Scherf et al.
# Submitted via: EZCDDA 4.3.2
#
DISCID=9c0b390c
DTITLE=Dennis Brennan - Iodine in the wine
DYEAR=1900
DGENRE=
TTITLE0=Familiar surroundings
TTITLE1=Mighty long time
TTITLE2=Blue sky, red song
TTITLE3=Lies
TTITLE4=Pill of love (a duet)
TTITLE5=Iodine in the wine
TTITLE6=Youngstown
TTITLE7=Ones and fours
TTITLE8=The worried man
TTITLE9=Call your rider
TTITLE10=River rise up
TTITLE11=Lemmy go down
EXTD=
EXTT0=
EXTT1=
EXTT2=
EXTT3=
EXTT4=
EXTT5=
EXTT6=
EXTT7=
EXTT8=
EXTT9=
EXTT10=
EXTT11=
PLAYORDER=
